<svg width="282" height="36" viewBox="0 0 282 36" fill="none" xmlns="http://www.w3.org/2000/svg">
<path d="M41.888 17.9865C41.888 16.3545 42.264 14.8905 43.016 13.5945C43.784 12.2985 44.816 11.2905 46.112 10.5705C47.424 9.83449 48.856 9.46649 50.408 9.46649C52.184 9.46649 53.76 9.90649 55.136 10.7865C56.528 11.6505 57.536 12.8825 58.16 14.4825H54.872C54.44 13.6025 53.84 12.9465 53.072 12.5145C52.304 12.0825 51.416 11.8665 50.408 11.8665C49.304 11.8665 48.32 12.1145 47.456 12.6105C46.592 13.1065 45.912 13.8185 45.416 14.7465C44.936 15.6745 44.696 16.7545 44.696 17.9865C44.696 19.2185 44.936 20.2985 45.416 21.2265C45.912 22.1545 46.592 22.8745 47.456 23.3865C48.32 23.8825 49.304 24.1305 50.408 24.1305C51.416 24.1305 52.304 23.9145 53.072 23.4825C53.84 23.0505 54.44 22.3945 54.872 21.5145H58.16C57.536 23.1145 56.528 24.3465 55.136 25.2105C53.76 26.0745 52.184 26.5065 50.408 26.5065C48.84 26.5065 47.408 26.1465 46.112 25.4265C44.816 24.6905 43.784 23.6745 43.016 22.3785C42.264 21.0825 41.888 19.6185 41.888 17.9865ZM64.0985 15.0585C64.4985 14.3865 65.0265 13.8665 65.6825 13.4985C66.3545 13.1145 67.1465 12.9225 68.0585 12.9225V15.7545H67.3625C66.2905 15.7545 65.4745 16.0265 64.9145 16.5705C64.3705 17.1145 64.0985 18.0585 64.0985 19.4025V26.3625H61.3625V13.1385H64.0985V15.0585ZM82.4774 13.1385L74.3654 32.5785H71.5334L74.2214 26.1465L69.0134 13.1385H72.0614L75.7814 23.2185L79.6454 13.1385H82.4774ZM87.2782 15.0825C87.7422 14.4745 88.3742 13.9625 89.1742 13.5465C89.9742 13.1305 90.8782 12.9225 91.8862 12.9225C93.0382 12.9225 94.0862 13.2105 95.0302 13.7865C95.9902 14.3465 96.7422 15.1385 97.2862 16.1625C97.8302 17.1865 98.1022 18.3625 98.1022 19.6905C98.1022 21.0185 97.8302 22.2105 97.2862 23.2665C96.7422 24.3065 95.9902 25.1225 95.0302 25.7145C94.0862 26.2905 93.0382 26.5785 91.8862 26.5785C90.8782 26.5785 89.9822 26.3785 89.1982 25.9785C88.4142 25.5625 87.7742 25.0505 87.2782 24.4425V32.6505H84.5422V13.1385H87.2782V15.0825ZM95.3182 19.6905C95.3182 18.7785 95.1262 17.9945 94.7422 17.3385C94.3742 16.6665 93.8782 16.1625 93.2542 15.8265C92.6462 15.4745 91.9902 15.2985 91.2862 15.2985C90.5982 15.2985 89.9422 15.4745 89.3182 15.8265C88.7102 16.1785 88.2142 16.6905 87.8302 17.3625C87.4622 18.0345 87.2782 18.8265 87.2782 19.7385C87.2782 20.6505 87.4622 21.4505 87.8302 22.1385C88.2142 22.8105 88.7102 23.3225 89.3182 23.6745C89.9422 24.0265 90.5982 24.2025 91.2862 24.2025C91.9902 24.2025 92.6462 24.0265 93.2542 23.6745C93.8782 23.3065 94.3742 22.7785 94.7422 22.0905C95.1262 21.4025 95.3182 20.6025 95.3182 19.6905ZM104 15.3705V22.6905C104 23.1865 104.112 23.5465 104.336 23.7705C104.576 23.9785 104.976 24.0825 105.536 24.0825H107.216V26.3625H105.056C103.824 26.3625 102.88 26.0745 102.224 25.4985C101.568 24.9225 101.24 23.9865 101.24 22.6905V15.3705H99.6798V13.1385H101.24V9.85049H104V13.1385H107.216V15.3705H104ZM115.474 26.5785C114.226 26.5785 113.098 26.2985 112.09 25.7385C111.082 25.1625 110.29 24.3625 109.714 23.3385C109.138 22.2985 108.85 21.0985 108.85 19.7385C108.85 18.3945 109.146 17.2025 109.738 16.1625C110.33 15.1225 111.138 14.3225 112.162 13.7625C113.186 13.2025 114.33 12.9225 115.594 12.9225C116.858 12.9225 118.002 13.2025 119.026 13.7625C120.05 14.3225 120.858 15.1225 121.45 16.1625C122.042 17.2025 122.338 18.3945 122.338 19.7385C122.338 21.0825 122.034 22.2745 121.426 23.3145C120.818 24.3545 119.986 25.1625 118.93 25.7385C117.89 26.2985 116.738 26.5785 115.474 26.5785ZM115.474 24.2025C116.178 24.2025 116.834 24.0345 117.442 23.6985C118.066 23.3625 118.57 22.8585 118.954 22.1865C119.338 21.5145 119.53 20.6985 119.53 19.7385C119.53 18.7785 119.346 17.9705 118.978 17.3145C118.61 16.6425 118.122 16.1385 117.514 15.8025C116.906 15.4665 116.25 15.2985 115.546 15.2985C114.842 15.2985 114.186 15.4665 113.578 15.8025C112.986 16.1385 112.514 16.6425 112.162 17.3145C111.81 17.9705 111.634 18.7785 111.634 19.7385C111.634 21.1625 111.994 22.2665 112.714 23.0505C113.45 23.8185 114.37 24.2025 115.474 24.2025ZM133.97 17.7945C134.866 17.9545 135.626 18.4265 136.25 19.2105C136.874 19.9945 137.186 20.8825 137.186 21.8745C137.186 22.7225 136.962 23.4905 136.514 24.1785C136.082 24.8505 135.45 25.3865 134.618 25.7865C133.786 26.1705 132.818 26.3625 131.714 26.3625H125.042V9.68249H131.402C132.538 9.68249 133.514 9.87449 134.33 10.2585C135.146 10.6425 135.762 11.1625 136.178 11.8185C136.594 12.4585 136.802 13.1785 136.802 13.9785C136.802 14.9385 136.546 15.7385 136.034 16.3785C135.522 17.0185 134.834 17.4905 133.97 17.7945ZM127.778 16.6905H131.162C132.058 16.6905 132.754 16.4905 133.25 16.0905C133.762 15.6745 134.018 15.0825 134.018 14.3145C134.018 13.5625 133.762 12.9785 133.25 12.5625C132.754 12.1305 132.058 11.9145 131.162 11.9145H127.778V16.6905ZM131.474 24.1305C132.402 24.1305 133.13 23.9065 133.658 23.4585C134.186 23.0105 134.45 22.3865 134.45 21.5865C134.45 20.7705 134.17 20.1225 133.61 19.6425C133.05 19.1625 132.306 18.9225 131.378 18.9225H127.778V24.1305H131.474ZM145.895 26.5785C144.647 26.5785 143.519 26.2985 142.511 25.7385C141.503 25.1625 140.711 24.3625 140.135 23.3385C139.559 22.2985 139.271 21.0985 139.271 19.7385C139.271 18.3945 139.567 17.2025 140.159 16.1625C140.751 15.1225 141.559 14.3225 142.583 13.7625C143.607 13.2025 144.751 12.9225 146.015 12.9225C147.279 12.9225 148.423 13.2025 149.447 13.7625C150.471 14.3225 151.279 15.1225 151.871 16.1625C152.463 17.2025 152.759 18.3945 152.759 19.7385C152.759 21.0825 152.455 22.2745 151.847 23.3145C151.239 24.3545 150.407 25.1625 149.351 25.7385C148.311 26.2985 147.159 26.5785 145.895 26.5785ZM145.895 24.2025C146.599 24.2025 147.255 24.0345 147.863 23.6985C148.487 23.3625 148.991 22.8585 149.375 22.1865C149.759 21.5145 149.951 20.6985 149.951 19.7385C149.951 18.7785 149.767 17.9705 149.399 17.3145C149.031 16.6425 148.543 16.1385 147.935 15.8025C147.327 15.4665 146.671 15.2985 145.967 15.2985C145.263 15.2985 144.607 15.4665 143.999 15.8025C143.407 16.1385 142.935 16.6425 142.583 17.3145C142.231 17.9705 142.055 18.7785 142.055 19.7385C142.055 21.1625 142.415 22.2665 143.135 23.0505C143.871 23.8185 144.791 24.2025 145.895 24.2025ZM154.552 19.6905C154.552 18.3625 154.824 17.1865 155.368 16.1625C155.928 15.1385 156.68 14.3465 157.624 13.7865C158.584 13.2105 159.64 12.9225 160.792 12.9225C161.832 12.9225 162.736 13.1305 163.504 13.5465C164.288 13.9465 164.912 14.4505 165.376 15.0585V13.1385H168.136V26.3625H165.376V24.3945C164.912 25.0185 164.28 25.5385 163.48 25.9545C162.68 26.3705 161.768 26.5785 160.744 26.5785C159.608 26.5785 158.568 26.2905 157.624 25.7145C156.68 25.1225 155.928 24.3065 155.368 23.2665C154.824 22.2105 154.552 21.0185 154.552 19.6905ZM165.376 19.7385C165.376 18.8265 165.184 18.0345 164.8 17.3625C164.432 16.6905 163.944 16.1785 163.336 15.8265C162.728 15.4745 162.072 15.2985 161.368 15.2985C160.664 15.2985 160.008 15.4745 159.4 15.8265C158.792 16.1625 158.296 16.6665 157.912 17.3385C157.544 17.9945 157.36 18.7785 157.36 19.6905C157.36 20.6025 157.544 21.4025 157.912 22.0905C158.296 22.7785 158.792 23.3065 159.4 23.6745C160.024 24.0265 160.68 24.2025 161.368 24.2025C162.072 24.2025 162.728 24.0265 163.336 23.6745C163.944 23.3225 164.432 22.8105 164.8 22.1385C165.184 21.4505 165.376 20.6505 165.376 19.7385ZM174.466 15.0585C174.866 14.3865 175.394 13.8665 176.05 13.4985C176.722 13.1145 177.514 12.9225 178.426 12.9225V15.7545H177.73C176.658 15.7545 175.842 16.0265 175.282 16.5705C174.738 17.1145 174.466 18.0585 174.466 19.4025V26.3625H171.73V13.1385H174.466V15.0585ZM180.029 19.6905C180.029 18.3625 180.301 17.1865 180.845 16.1625C181.405 15.1385 182.157 14.3465 183.101 13.7865C184.061 13.2105 185.125 12.9225 186.293 12.9225C187.157 12.9225 188.005 13.1145 188.837 13.4985C189.685 13.8665 190.357 14.3625 190.853 14.9865V8.60249H193.613V26.3625H190.853V24.3705C190.405 25.0105 189.781 25.5385 188.981 25.9545C188.197 26.3705 187.293 26.5785 186.269 26.5785C185.117 26.5785 184.061 26.2905 183.101 25.7145C182.157 25.1225 181.405 24.3065 180.845 23.2665C180.301 22.2105 180.029 21.0185 180.029 19.6905ZM190.853 19.7385C190.853 18.8265 190.661 18.0345 190.277 17.3625C189.909 16.6905 189.421 16.1785 188.813 15.8265C188.205 15.4745 187.549 15.2985 186.845 15.2985C186.141 15.2985 185.485 15.4745 184.877 15.8265C184.269 16.1625 183.773 16.6665 183.389 17.3385C183.021 17.9945 182.837 18.7785 182.837 19.6905C182.837 20.6025 183.021 21.4025 183.389 22.0905C183.773 22.7785 184.269 23.3065 184.877 23.6745C185.501 24.0265 186.157 24.2025 186.845 24.2025C187.549 24.2025 188.205 24.0265 188.813 23.6745C189.421 23.3225 189.909 22.8105 190.277 22.1385C190.661 21.4505 190.853 20.6505 190.853 19.7385Z" fill="#FFDC5F"/>
<rect y="3.39996" width="32" height="32.4" rx="16" fill="#FFDC5F"/>
<path d="M16.3899 17.4737C14.1199 16.8763 13.3899 16.2587 13.3899 15.2968C13.3899 14.1932 14.3999 13.4237 16.0899 13.4237C17.8699 13.4237 18.5299 14.2843 18.5899 15.5499H20.7999C20.7299 13.8084 19.6799 12.2087 17.5899 11.6923V9.47491H14.5899V11.6619C12.6499 12.0872 11.0899 13.3629 11.0899 15.317C11.0899 17.6559 12.9999 18.8203 15.7899 19.4987C18.2899 20.1062 18.7899 20.9972 18.7899 21.9388C18.7899 22.6374 18.2999 23.7512 16.0899 23.7512C14.0299 23.7512 13.2199 22.8197 13.1099 21.6249H10.9099C11.0299 23.8423 12.6699 25.0877 14.5899 25.5028V27.6999H17.5899V25.523C19.5399 25.1484 21.0899 24.0043 21.0899 21.9287C21.0899 19.0532 18.6599 18.071 16.3899 17.4737Z" fill="black" fill-opacity="0.54"/>
</svg>
